General
Complete name :Got.To.Dance.S04E10.Live.Shows.2.WS.DSR.XviD-W33D.avi
Format : AVI
Format/Info : Audio Video Interleave
Format profile : OpenDML
Format settings : rec
File size : 527 MiB
Duration : 1h 5mn
Overall bit rate mode : Variable
Overall bit rate : 1 116 Kbps
Writing application : AVI-Mux GUI 1.17.8.3, Feb 16 201019:42:50

Video
ID : 0
Format : MPEG-4 Visual
Format profile : Advanced Simple@L5
Format settings, BVOP : 1
Format settings, QPel : No
Format settings, GMC : No warppoints
Format settings, Matrix : Default (H.263)
Codec ID : XVID
Codec ID/Hint : XviD
Duration : 1h 5mn
Bit rate : 986 Kbps
Width : 704 pixels
Height : 384 pixels
Display aspect ratio : 1.85:1
Frame rate : 25.000 fps
Color space : YUV
Chroma subsampling : 4:2:0
Bit depth : 8 bits
Scan type : Progressive
Compression mode : Lossy
Bits/(Pixel*Frame) : 0.146
Stream size : 465 MiB (88%)
Writing library : XviD 1.1.2 (UTC 2006-11-01)

Audio
ID : 1
Format : MPEG Audio
Format version : Version 1
Format profile : Layer 3
Mode : Joint stereo
Mode extension : MS Stereo
Codec ID : 55
Codec ID/Hint : MP3
Duration : 1h 5mn
Bit rate mode : Variable
Bit rate : 121 Kbps
Nominal bit rate : 128 Kbps
Channel(s) : 2 channels
Sampling rate : 48.0 KHz
Compression mode : Lossy
Stream size : 57.3 MiB (11%)
Alignment : Aligned on interleaves
Interleave, duration : 24 ms (0.60 video frame)
Interleave, preload duration : 227 ms
Writing library : LAME3.90.
Encoding settings : -m j -V 4 -q 2 -lowpass 17.6 --abr 128